<svg xmlns="http://www.w3.org/2000/svg" width="256" height="256" viewBox="0 0 256 256" fill="none">
<rect width="256" height="256" fill="#FEFFFE"/>
<path d="M 174.48,33 L 133.06,56.92 L 145.19,63.91 L 174.41,46.49 L 213.18,68.82 V 113.06 L 174.55,135.26 L 124.44,106.36 V 78.96 L 113.61,72.32 L 113.53,112.93 L 174.62,148.61 L 225.11,119.38 V 62.81 L 174.48,33 Z" fill="url(#paint0_linear_1238_3181)"/>
<path d="M 154.51,92.62 H 166.69 V 111.28 H 154.51 V 92.62 Z" fill="url(#paint1_linear_1238_3181)"/>
<path d="M 171.65,82.74 H 183.58 V 110.89 H 171.65 V 82.74 Z" fill="url(#paint2_linear_1238_3181)"/>
<path d="M 188.53,69.41 H 198.81 V 110.89 H 188.53 V 69.41 Z" fill="url(#paint3_linear_1238_3181)"/>
<path d="M 81.56,33 L 30.18,62.41 V 119.23 L 81.42,148.48 L 121.87,124.71 L 110.48,118.57 L 81.36,135.48 L 42.03,112.71 L 42.14,68.82 L 81.43,46.49 L 130.21,75.72 V 102.89 L 142.47,109.81 L 142.82,68.82 L 81.56,33 Z" fill="url(#paint4_linear_1238_3181)"/>
<path d="M 67.79,72.54 L 50.02,91.13 L 68.28,109.19 L 72.69,104.11 L 60.62,91.06 L 72.69,77.73 L 67.79,72.54 Z" fill="url(#paint5_linear_1238_3181)"/>
<path d="M 86.92,72.69 L 82.79,78.09 L 94.72,90.91 L 82.79,104.68 L 87.14,108.83 L 104.76,90.91 L 86.92,72.69 Z" fill="url(#paint6_linear_1238_3181)"/>
<path d="M 34.41,172.06 H 35.9 C 45.96,172.06 53.06,176.56 56.78,183.61 L 47.83,188.88 C 44.66,183.75 40.59,182.38 35.04,182.38 C 25.87,182.38 20.01,188.88 18.92,196.38 C 17.76,205.01 24.61,212.44 33.71,212.44 C 40.29,212.44 44.73,209.06 47.48,205.61 L 56.58,210.32 C 51.99,218.03 45.21,222.66 34.23,222.69 H 33.92 C 19.13,222.69 8,211.21 8,197.44 V 196.72 C 8.14,183.4 18.85,172.06 34.41,172.06 Z" fill="#42236A"/>
<path d="M 87.19,172.06 H 88.61 C 102.96,172.06 113.94,183.26 113.94,197.23 V 197.72 C 113.94,211.28 103.73,222.76 88.33,222.76 H 87.4 C 72.91,222.76 61.45,212.23 61.45,198.25 V 197.83 C 61.45,183.92 72.36,172.06 87.19,172.06 Z M 87.75,182.31 C 78.58,182.31 72.63,189.43 72.63,197.62 C 72.63,206.08 78.72,212.51 87.33,212.51 C 96.64,212.51 102.8,204.94 102.8,197.37 C 102.8,189.32 96.92,182.31 87.75,182.31 Z" fill="#42236A"/>
<path d="M 125.19,161.18 H 136.31 V 173.04 H 149.72 V 182.45 H 136.38 V 203.95 C 136.38,209.81 139.13,212.37 143.72,212.37 C 146.33,212.37 148.49,211.38 149.93,210.15 L 152.82,219.42 C 149.72,221.33 145.72,222.56 141.42,222.56 C 131.28,222.56 125.19,217.15 125.19,205.53 V 182.45 H 117.28 V 173.04 H 125.19 V 161.18 Z" fill="#42236A"/>
<path d="M 182.24,172.06 H 183.66 C 198.01,172.06 208.29,183.26 208.29,197.23 V 197.72 C 208.29,211.28 198.08,222.76 182.67,222.76 H 181.74 C 167.25,222.76 155.79,212.23 155.79,198.25 V 197.83 C 155.79,183.92 166.7,172.06 182.24,172.06 Z M 182.81,182.31 C 173.64,182.31 167.69,189.43 167.69,197.62 C 167.69,206.08 173.78,212.51 182.39,212.51 C 191.7,212.51 197.86,204.94 197.86,197.37 C 197.86,189.32 191.98,182.31 182.81,182.31 Z" fill="#42236A"/>
<path d="M 218.36,172.62 H 230.36 V 180.36 H 230.71 C 234.22,174.95 238.95,172.06 245.32,172.06 H 247.93 V 183.05 H 243.86 C 234.91,183.05 230.22,189.18 230.22,199.06 V 222.31 H 218.36 V 172.62 Z" fill="#42236A"/>
<defs>
<linearGradient id="paint0_linear_1238_3181" x1="169.321" y1="33" x2="169.321" y2="148.61" gradientUnits="userSpaceOnUse">
<stop stop-color="#F39C12"/>
<stop offset="1" stop-color="#E94F4F"/>
</linearGradient>
<linearGradient id="paint1_linear_1238_3181" x1="160.601" y1="92.6201" x2="160.601" y2="111.278" gradientUnits="userSpaceOnUse">
<stop stop-color="#7038AA"/>
<stop offset="1" stop-color="#42337A"/>
</linearGradient>
<linearGradient id="paint2_linear_1238_3181" x1="177.617" y1="82.7373" x2="177.617" y2="110.887" gradientUnits="userSpaceOnUse">
<stop stop-color="#F07B3D"/>
<stop offset="1" stop-color="#E95A36"/>
</linearGradient>
<linearGradient id="paint3_linear_1238_3181" x1="193.67" y1="69.4102" x2="193.67" y2="110.887" gradientUnits="userSpaceOnUse">
<stop stop-color="#F09123"/>
<stop offset="1" stop-color="#EB7539"/>
</linearGradient>
<linearGradient id="paint4_linear_1238_3181" x1="30.1836" y1="33" x2="107.169" y2="142.969" gradientUnits="userSpaceOnUse">
<stop stop-color="#6639A6"/>
<stop offset="1" stop-color="#3B3175"/>
</linearGradient>
<linearGradient id="paint5_linear_1238_3181" x1="51.355" y1="72.5352" x2="72.7317" y2="107.913" gradientUnits="userSpaceOnUse">
<stop stop-color="#6639A6"/>
<stop offset="1" stop-color="#553487"/>
</linearGradient>
<linearGradient id="paint6_linear_1238_3181" x1="84.128" y1="72.6875" x2="105.505" y2="108.065" gradientUnits="userSpaceOnUse">
<stop stop-color="#6639A6"/>
<stop offset="1" stop-color="#553487"/>
</linearGradient>
</defs>
</svg>